<svg version="1.1" xmlns="http://www.w3.org/2000/svg" viewBox="0 0 425.97156871710195 468.68719618111135" width="425.97156871710195" height="468.68719618111135" filter="invert(93%) hue-rotate(180deg)">
  <!-- svg-source:excalidraw -->
  
  <defs>
    <style class="style-fonts">
      @font-face {
        font-family: "Virgil";
        src: url("https://excalidraw.com/Virgil.woff2");
      }
      @font-face {
        font-family: "Cascadia";
        src: url("https://excalidraw.com/Cascadia.woff2");
      }
      @font-face {
        font-family: "Assistant";
        src: url("https://excalidraw.com/Assistant-Regular.woff2");
      }
    </style>
    
  </defs>
  <g transform="translate(103.69048881733443 66.17643232665256) rotate(0 118.06873321533203 122.27637705289)"><text x="0" y="171.38257007733063" font-family="Virgil, Segoe UI Emoji" font-size="195.642203284624px" fill="#1971c2" text-anchor="start" style="white-space: pre;" direction="ltr" dominant-baseline="alphabetic">SL</text></g><g stroke-linecap="round" transform="translate(30.071915792974664 10) rotate(0 180.3235804383806 15.539555977041005)"><path d="M7.77 0 C77.84 0, 147.92 0, 352.88 0 C358.06 0, 360.65 2.59, 360.65 7.77 C360.65 12.22, 360.65 16.67, 360.65 23.31 C360.65 28.49, 358.06 31.08, 352.88 31.08 C244.73 31.08, 136.58 31.08, 7.77 31.08 C2.59 31.08, 0 28.49, 0 23.31 C0 19.95, 0 16.59, 0 7.77 C0 2.59, 2.59 0, 7.77 0" stroke="none" stroke-width="0" fill="#1e1e1e"></path><path d="M7.77 0 C130.08 0, 252.39 0, 352.88 0 M7.77 0 C84.41 0, 161.04 0, 352.88 0 M352.88 0 C358.06 0, 360.65 2.59, 360.65 7.77 M352.88 0 C358.06 0, 360.65 2.59, 360.65 7.77 M360.65 7.77 C360.65 12.28, 360.65 16.78, 360.65 23.31 M360.65 7.77 C360.65 11.75, 360.65 15.73, 360.65 23.31 M360.65 23.31 C360.65 28.49, 358.06 31.08, 352.88 31.08 M360.65 23.31 C360.65 28.49, 358.06 31.08, 352.88 31.08 M352.88 31.08 C273.55 31.08, 194.22 31.08, 7.77 31.08 M352.88 31.08 C275.05 31.08, 197.22 31.08, 7.77 31.08 M7.77 31.08 C2.59 31.08, 0 28.49, 0 23.31 M7.77 31.08 C2.59 31.08, 0 28.49, 0 23.31 M0 23.31 C0 18.98, 0 14.64, 0 7.77 M0 23.31 C0 19.79, 0 16.27, 0 7.77 M0 7.77 C0 2.59, 2.59 0, 7.77 0 M0 7.77 C0 2.59, 2.59 0, 7.77 0" stroke="#1e1e1e" stroke-width="2" fill="none"></path></g><g stroke-linecap="round" transform="translate(10 27.481998544525823) rotate(0 15.21581709284294 175.46747247595212)"><path d="M7.61 0 C12.73 0, 17.86 0, 22.82 0 C27.9 0, 30.43 2.54, 30.43 7.61 C30.43 116.53, 30.43 225.45, 30.43 343.33 C30.43 348.4, 27.9 350.93, 22.82 350.93 C18.62 350.93, 14.42 350.93, 7.61 350.93 C2.54 350.93, 0 348.4, 0 343.33 C0 251.22, 0 159.11, 0 7.61 C0 2.54, 2.54 0, 7.61 0" stroke="none" stroke-width="0" fill="#1e1e1e"></path><path d="M7.61 0 C12.46 0, 17.3 0, 22.82 0 M7.61 0 C12.12 0, 16.63 0, 22.82 0 M22.82 0 C27.9 0, 30.43 2.54, 30.43 7.61 M22.82 0 C27.9 0, 30.43 2.54, 30.43 7.61 M30.43 7.61 C30.43 75.09, 30.43 142.57, 30.43 343.33 M30.43 7.61 C30.43 108.7, 30.43 209.79, 30.43 343.33 M30.43 343.33 C30.43 348.4, 27.9 350.93, 22.82 350.93 M30.43 343.33 C30.43 348.4, 27.9 350.93, 22.82 350.93 M22.82 350.93 C18.07 350.93, 13.31 350.93, 7.61 350.93 M22.82 350.93 C17.28 350.93, 11.74 350.93, 7.61 350.93 M7.61 350.93 C2.54 350.93, 0 348.4, 0 343.33 M7.61 350.93 C2.54 350.93, 0 348.4, 0 343.33 M0 343.33 C0 241.57, 0 139.8, 0 7.61 M0 343.33 C0 245.5, 0 147.67, 0 7.61 M0 7.61 C0 2.54, 2.54 0, 7.61 0 M0 7.61 C0 2.54, 2.54 0, 7.61 0" stroke="#1e1e1e" stroke-width="2" fill="none"></path></g><g stroke-linecap="round" transform="translate(379.0644397894198 29.424438024578762) rotate(0 17.158268922624586 137.2660803700554)"><path d="M8.58 0 C12.88 0, 17.19 0, 25.74 0 C31.46 0, 34.32 2.86, 34.32 8.58 C34.32 85.95, 34.32 163.32, 34.32 265.95 C34.32 271.67, 31.46 274.53, 25.74 274.53 C21.97 274.53, 18.21 274.53, 8.58 274.53 C2.86 274.53, 0 271.67, 0 265.95 C0 210.26, 0 154.58, 0 8.58 C0 2.86, 2.86 0, 8.58 0" stroke="none" stroke-width="0" fill="#1e1e1e"></path><path d="M8.58 0 C15 0, 21.42 0, 25.74 0 M8.58 0 C14.64 0, 20.7 0, 25.74 0 M25.74 0 C31.46 0, 34.32 2.86, 34.32 8.58 M25.74 0 C31.46 0, 34.32 2.86, 34.32 8.58 M34.32 8.58 C34.32 100.58, 34.32 192.57, 34.32 265.95 M34.32 8.58 C34.32 72.85, 34.32 137.12, 34.32 265.95 M34.32 265.95 C34.32 271.67, 31.46 274.53, 25.74 274.53 M34.32 265.95 C34.32 271.67, 31.46 274.53, 25.74 274.53 M25.74 274.53 C20.3 274.53, 14.86 274.53, 8.58 274.53 M25.74 274.53 C19.4 274.53, 13.07 274.53, 8.58 274.53 M8.58 274.53 C2.86 274.53, 0 271.67, 0 265.95 M8.58 274.53 C2.86 274.53, 0 271.67, 0 265.95 M0 265.95 C0 212.49, 0 159.02, 0 8.58 M0 265.95 C0 184.17, 0 102.4, 0 8.58 M0 8.58 C0 2.86, 2.86 0, 8.58 0 M0 8.58 C0 2.86, 2.86 0, 8.58 0" stroke="#1e1e1e" stroke-width="2" fill="none"></path></g><g stroke-linecap="round" transform="translate(88.34527309076202 295.53939395040527) rotate(0 151.18692648894495 15.539528190150534)"><path d="M7.77 0 C89.28 0, 170.79 0, 294.6 0 C299.78 0, 302.37 2.59, 302.37 7.77 C302.37 11.39, 302.37 15.01, 302.37 23.31 C302.37 28.49, 299.78 31.08, 294.6 31.08 C229.99 31.08, 165.38 31.08, 7.77 31.08 C2.59 31.08, 0 28.49, 0 23.31 C0 18.01, 0 12.71, 0 7.77 C0 2.59, 2.59 0, 7.77 0" stroke="none" stroke-width="0" fill="#1e1e1e"></path><path d="M7.77 0 C85.57 0, 163.37 0, 294.6 0 M7.77 0 C111.69 0, 215.61 0, 294.6 0 M294.6 0 C299.78 0, 302.37 2.59, 302.37 7.77 M294.6 0 C299.78 0, 302.37 2.59, 302.37 7.77 M302.37 7.77 C302.37 13.04, 302.37 18.31, 302.37 23.31 M302.37 7.77 C302.37 12.96, 302.37 18.14, 302.37 23.31 M302.37 23.31 C302.37 28.49, 299.78 31.08, 294.6 31.08 M302.37 23.31 C302.37 28.49, 299.78 31.08, 294.6 31.08 M294.6 31.08 C199.4 31.08, 104.2 31.08, 7.77 31.08 M294.6 31.08 C235.45 31.08, 176.29 31.08, 7.77 31.08 M7.77 31.08 C2.59 31.08, 0 28.49, 0 23.31 M7.77 31.08 C2.59 31.08, 0 28.49, 0 23.31 M0 23.31 C0 17.6, 0 11.89, 0 7.77 M0 23.31 C0 17.45, 0 11.6, 0 7.77 M0 7.77 C0 2.59, 2.59 0, 7.77 0 M0 7.77 C0 2.59, 2.59 0, 7.77 0" stroke="#1e1e1e" stroke-width="2" fill="none"></path></g><g stroke-linecap="round" transform="translate(21.007140587326603 321.43865288299605) rotate(316.9092488590992 44.67623153850246 12.302145523034866)"><path d="M6.15 0 C36.31 0, 66.48 0, 83.2 0 C87.3 0, 89.35 2.05, 89.35 6.15 C89.35 11.01, 89.35 15.86, 89.35 18.45 C89.35 22.55, 87.3 24.6, 83.2 24.6 C65.85 24.6, 48.5 24.6, 6.15 24.6 C2.05 24.6, 0 22.55, 0 18.45 C0 15.77, 0 13.09, 0 6.15 C0 2.05, 2.05 0, 6.15 0" stroke="none" stroke-width="0" fill="#1e1e1e"></path><path d="M6.15 0 C24.43 0, 42.7 0, 83.2 0 M6.15 0 C28.63 0, 51.1 0, 83.2 0 M83.2 0 C87.3 0, 89.35 2.05, 89.35 6.15 M83.2 0 C87.3 0, 89.35 2.05, 89.35 6.15 M89.35 6.15 C89.35 9.09, 89.35 12.02, 89.35 18.45 M89.35 6.15 C89.35 11.06, 89.35 15.97, 89.35 18.45 M89.35 18.45 C89.35 22.55, 87.3 24.6, 83.2 24.6 M89.35 18.45 C89.35 22.55, 87.3 24.6, 83.2 24.6 M83.2 24.6 C60.72 24.6, 38.23 24.6, 6.15 24.6 M83.2 24.6 C54.62 24.6, 26.03 24.6, 6.15 24.6 M6.15 24.6 C2.05 24.6, 0 22.55, 0 18.45 M6.15 24.6 C2.05 24.6, 0 22.55, 0 18.45 M0 18.45 C0 15.53, 0 12.6, 0 6.15 M0 18.45 C0 14.94, 0 11.42, 0 6.15 M0 6.15 C0 2.05, 2.05 0, 6.15 0 M0 6.15 C0 2.05, 2.05 0, 6.15 0" stroke="#1e1e1e" stroke-width="2" fill="none"></path></g><g transform="translate(42.374073665738365 20.359712217846777) rotate(0 -9.064738156460976 5.179846846626518)" stroke="none"><path fill="#1e1e1e" d="M 3.25,3.79 Q 3.25,3.79 2.00,4.98 0.76,6.17 -1.28,7.61 -3.33,9.05 -5.18,10.36 -7.02,11.67 -9.09,12.93 -11.16,14.20 -13.18,15.29 -15.20,16.38 -15.97,16.59 -16.73,16.81 -17.53,16.83 -18.32,16.85 -19.09,16.68 -19.87,16.51 -20.58,16.16 -21.29,15.81 -21.90,15.30 -22.51,14.79 -22.98,14.15 -23.45,13.51 -23.75,12.78 -24.05,12.04 -24.17,11.26 -24.28,10.47 -24.21,9.68 -24.14,8.89 -23.88,8.15 -23.61,7.40 -23.18,6.73 -22.75,6.07 -22.17,5.52 -21.59,4.98 -20.90,4.59 -20.21,4.21 -18.08,4.09 -15.95,3.98 -14.20,1.54 -12.45,-0.89 -12.84,-0.45 -13.24,-0.01 -12.71,-0.68 -12.18,-1.34 -11.51,-1.87 -10.84,-2.39 -10.07,-2.74 -9.29,-3.09 -8.45,-3.24 -7.61,-3.39 -6.76,-3.34 -5.91,-3.28 -5.10,-3.03 -4.29,-2.77 -3.56,-2.33 -2.84,-1.89 -2.24,-1.29 -1.64,-0.68 -1.20,0.04 -0.76,0.77 -0.51,1.58 -0.26,2.39 -0.21,3.24 -0.16,4.09 -0.31,4.93 -0.47,5.76 -0.82,6.54 -1.17,7.31 -0.85,4.37 -0.52,1.43 -1.46,4.63 -2.40,7.83 -4.55,9.60 -6.70,11.37 -8.39,12.86 -10.08,14.34 -11.21,14.59 -12.35,14.85 -13.50,14.72 -14.65,14.60 -15.71,14.12 -16.76,13.64 -17.60,12.84 -18.45,12.05 -19.00,11.03 -19.54,10.01 -19.74,8.86 -19.93,7.72 -19.75,6.57 -19.56,5.43 -19.02,4.40 -18.48,3.38 -17.65,2.58 -16.81,1.78 -15.76,1.29 -14.71,0.79 -13.55,0.66 -12.40,0.53 -11.27,0.78 -10.14,1.02 -9.14,1.62 -8.14,2.21 -7.39,3.09 -6.64,3.97 -6.20,5.05 -5.77,6.12 -5.70,7.28 -5.64,8.44 -5.94,9.56 -6.25,10.68 -6.89,11.64 -7.54,12.60 -8.46,13.30 -9.38,14.01 -10.48,14.38 -11.58,14.76 -12.74,14.76 -13.89,14.77 -14.99,14.40 -16.09,14.04 -17.02,13.34 -17.95,12.64 -18.60,11.68 -19.25,10.72 -19.57,9.61 -19.88,8.49 -19.82,7.34 -19.77,6.18 -19.34,5.10 -18.92,4.02 -18.17,3.13 -17.42,2.25 -16.43,1.65 -15.44,1.04 -15.44,1.04 -15.44,1.05 -13.66,0.82 -11.87,0.59 -12.83,3.36 -13.78,6.13 -13.51,3.06 -13.24,-0.01 -12.71,-0.68 -12.18,-1.34 -11.51,-1.87 -10.84,-2.39 -10.07,-2.74 -9.29,-3.09 -8.45,-3.24 -7.61,-3.39 -6.76,-3.34 -5.92,-3.28 -5.10,-3.03 -4.29,-2.77 -3.56,-2.33 -2.84,-1.89 -2.24,-1.29 -1.64,-0.68 -1.20,0.04 -0.76,0.76 -0.51,1.58 -0.26,2.39 -0.21,3.24 -0.16,4.09 -0.31,4.93 -0.47,5.76 -0.82,6.54 -1.17,7.31 -2.93,8.61 -4.70,9.91 -6.98,11.77 -9.25,13.63 -12.23,15.01 -15.20,16.38 -15.97,16.59 -16.73,16.81 -17.53,16.83 -18.32,16.85 -19.09,16.68 -19.87,16.51 -20.58,16.16 -21.29,15.81 -21.90,15.30 -22.51,14.79 -22.98,14.15 -23.45,13.51 -23.75,12.78 -24.05,12.04 -24.17,11.26 -24.28,10.48 -24.21,9.69 -24.14,8.90 -23.88,8.15 -23.61,7.40 -23.18,6.73 -22.75,6.07 -22.17,5.52 -21.59,4.98 -20.90,4.59 -20.21,4.21 -20.45,4.75 -20.70,5.30 -18.03,4.12 -15.37,2.95 -12.92,2.15 -10.47,1.36 -8.22,-0.17 -5.97,-1.70 -4.61,-2.75 -3.25,-3.79 -2.75,-4.12 -2.25,-4.46 -1.68,-4.66 -1.11,-4.87 -0.51,-4.93 0.08,-4.99 0.67,-4.91 1.27,-4.83 1.83,-4.61 2.39,-4.38 2.88,-4.03 3.37,-3.68 3.76,-3.22 4.15,-2.77 4.43,-2.23 4.70,-1.69 4.83,-1.10 4.97,-0.52 4.96,0.08 4.95,0.68 4.79,1.26 4.64,1.84 4.35,2.37 4.06,2.90 3.65,3.35 3.25,3.79 3.25,3.79 L 3.25,3.79 Z"></path></g><g transform="translate(384.8917829290359 22.94962329143084) rotate(0 7.769782619668888 6.151075848949716)" stroke="none"><path fill="#1e1e1e" d="M 1.39,-4.88 Q 1.39,-4.88 2.73,-4.60 4.06,-4.32 7.22,-2.59 10.38,-0.86 12.69,1.44 15.00,3.75 16.18,5.60 17.36,7.45 16.68,6.47 16.00,5.48 16.77,5.66 17.54,5.84 18.24,6.20 18.95,6.56 19.55,7.08 20.14,7.59 20.60,8.24 21.05,8.88 21.34,9.62 21.63,10.36 21.73,11.14 21.84,11.92 21.75,12.71 21.67,13.49 21.39,14.23 21.12,14.98 20.68,15.63 20.24,16.29 19.65,16.82 19.07,17.35 18.37,17.72 17.68,18.10 16.91,18.29 16.15,18.49 15.36,18.50 14.57,18.51 11.85,17.42 9.12,16.33 7.27,14.03 5.42,11.73 3.40,10.71 1.37,9.68 1.70,10.18 2.02,10.67 1.18,10.47 0.34,10.28 -0.43,9.88 -1.20,9.49 -1.85,8.92 -2.50,8.35 -3.00,7.64 -3.50,6.94 -3.82,6.13 -4.13,5.32 -4.25,4.47 -4.36,3.61 -4.26,2.75 -4.17,1.89 -3.87,1.07 -3.57,0.26 -3.09,-0.45 -2.60,-1.16 -1.96,-1.75 -1.32,-2.33 -0.56,-2.74 0.20,-3.15 1.04,-3.36 1.87,-3.58 2.74,-3.59 3.61,-3.60 6.45,-2.25 9.30,-0.90 10.94,0.86 12.58,2.64 14.83,4.53 17.08,6.42 16.70,5.75 16.32,5.07 17.10,5.52 17.88,5.96 18.54,6.58 19.19,7.20 19.68,7.95 20.16,8.71 20.46,9.56 20.75,10.41 20.83,11.31 20.91,12.20 20.77,13.09 20.63,13.98 20.29,14.81 19.94,15.64 19.41,16.37 18.87,17.09 18.18,17.66 17.49,18.24 16.68,18.63 15.87,19.02 14.99,19.21 14.11,19.40 13.21,19.37 12.31,19.34 11.44,19.09 10.58,18.85 7.92,16.57 5.26,14.28 2.68,12.41 0.11,10.53 2.18,11.95 4.25,13.37 1.27,11.42 -1.70,9.46 -2.67,7.84 -3.64,6.21 -3.71,5.30 -3.79,4.38 -3.64,3.48 -3.49,2.57 -3.13,1.73 -2.77,0.88 -2.22,0.15 -1.66,-0.58 -0.95,-1.16 -0.24,-1.74 0.58,-2.13 1.41,-2.52 2.31,-2.71 3.21,-2.89 4.13,-2.85 5.05,-2.81 5.93,-2.56 6.81,-2.30 7.60,-1.84 8.40,-1.38 9.06,-0.74 9.72,-0.11 10.21,0.66 10.70,1.44 10.99,2.31 11.28,3.18 5.75,1.20 0.23,-0.77 2.40,-1.75 4.58,-2.73 6.71,-2.12 8.85,-1.50 11.16,0.18 13.47,1.87 15.66,3.39 17.86,4.90 19.23,6.70 20.61,8.49 20.91,9.70 21.20,10.91 21.10,12.15 20.99,13.39 20.50,14.53 20.00,15.68 19.17,16.60 18.33,17.52 17.24,18.13 16.16,18.74 14.93,18.97 13.71,19.20 12.48,19.03 11.24,18.86 10.13,18.30 9.02,17.74 8.14,16.86 7.26,15.97 6.71,14.85 6.16,13.74 6.00,12.50 5.84,11.27 6.08,10.05 6.32,8.82 6.93,7.74 7.55,6.66 8.48,5.83 9.41,5.00 10.56,4.52 11.70,4.03 12.94,3.93 14.19,3.84 15.39,4.14 16.60,4.45 17.65,5.12 18.69,5.80 19.47,6.77 20.25,7.74 20.67,8.91 21.10,10.09 21.12,11.33 21.15,12.57 20.78,13.76 20.41,14.95 19.68,15.96 18.95,16.97 17.94,17.69 16.92,18.41 15.73,18.78 14.54,19.14 13.30,19.10 12.05,19.06 10.88,18.63 9.72,18.19 8.75,17.41 7.78,16.62 7.11,15.57 6.45,14.52 6.45,14.52 6.45,14.52 5.84,13.98 5.23,13.44 3.32,11.97 1.41,10.50 3.32,11.61 5.23,12.73 2.97,12.03 0.71,11.33 4.09,10.66 7.48,9.98 1.92,8.10 -3.64,6.22 -3.71,5.30 -3.79,4.38 -3.64,3.48 -3.49,2.57 -3.13,1.73 -2.77,0.88 -2.22,0.15 -1.66,-0.58 -0.95,-1.16 -0.24,-1.74 0.58,-2.13 1.41,-2.52 2.31,-2.71 3.21,-2.89 4.13,-2.85 5.04,-2.81 5.93,-2.56 6.81,-2.30 7.60,-1.84 8.40,-1.38 9.06,-0.74 9.72,-0.11 10.21,0.66 10.70,1.44 10.99,2.31 11.28,3.18 11.22,2.32 11.15,1.47 9.03,-0.05 6.91,-1.57 9.26,-0.32 11.61,0.93 13.96,3.00 16.32,5.07 17.10,5.52 17.88,5.96 18.54,6.58 19.19,7.19 19.68,7.95 20.16,8.71 20.46,9.56 20.75,10.41 20.83,11.31 20.91,12.20 20.77,13.09 20.63,13.98 20.29,14.81 19.94,15.64 19.41,16.36 18.87,17.09 18.18,17.66 17.49,18.24 16.68,18.63 15.87,19.02 14.99,19.21 14.11,19.40 13.21,19.37 12.31,19.34 11.44,19.10 10.58,18.85 9.66,17.77 8.74,16.68 6.94,15.51 5.14,14.33 3.58,12.50 2.02,10.67 1.18,10.47 0.34,10.28 -0.42,9.88 -1.20,9.49 -1.85,8.92 -2.50,8.35 -3.00,7.64 -3.50,6.94 -3.82,6.13 -4.13,5.32 -4.25,4.47 -4.36,3.61 -4.26,2.75 -4.17,1.89 -3.87,1.07 -3.57,0.26 -3.09,-0.45 -2.60,-1.16 -1.96,-1.75 -1.32,-2.33 -0.56,-2.74 0.20,-3.15 1.03,-3.36 1.87,-3.58 2.74,-3.59 3.60,-3.60 4.52,-3.27 5.43,-2.94 8.75,-1.02 12.06,0.90 14.03,3.19 16.00,5.48 16.77,5.66 17.54,5.84 18.24,6.20 18.95,6.56 19.54,7.08 20.14,7.59 20.60,8.24 21.05,8.88 21.34,9.62 21.63,10.35 21.73,11.14 21.84,11.92 21.75,12.71 21.67,13.49 21.39,14.23 21.12,14.97 20.68,15.63 20.24,16.29 19.65,16.82 19.07,17.35 18.37,17.72 17.68,18.10 16.91,18.29 16.15,18.49 15.36,18.50 14.57,18.51 13.70,18.18 12.84,17.84 9.92,15.88 6.99,13.92 5.57,11.50 4.15,9.08 2.65,7.44 1.14,5.80 -0.12,5.34 -1.39,4.88 -1.96,4.65 -2.52,4.41 -3.01,4.04 -3.50,3.68 -3.89,3.20 -4.28,2.73 -4.55,2.18 -4.81,1.62 -4.94,1.02 -5.06,0.42 -5.04,-0.18 -5.02,-0.79 -4.85,-1.38 -4.68,-1.97 -4.38,-2.50 -4.07,-3.04 -3.65,-3.48 -3.23,-3.92 -2.71,-4.25 -2.19,-4.58 -1.61,-4.78 -1.03,-4.97 -0.42,-5.03 0.18,-5.08 0.79,-4.98 1.39,-4.88 1.39,-4.88 L 1.39,-4.88 Z"></path></g><g transform="translate(404.3162271284789 302.01413458517885) rotate(0 -8.417254213200351 7.769807319126784)" stroke="none"><path d="M0 0 C-0.54 0.65, -2.27 3.13, -3.24 3.88 C-4.21 4.64, -4.75 3.78, -5.83 4.53 C-6.91 5.29, -7.99 7.23, -9.71 8.42 C-11.44 9.6, -15 10.47, -16.19 11.65 C-17.37 12.84, -17.27 14.89, -16.83 15.54 C-16.4 16.19, -15.86 17.16, -13.6 15.54 C-11.33 13.92, -4.96 7.45, -3.24 5.83" stroke="none" stroke-width="0" fill="#1e1e1e" fill-rule="evenodd"></path><path fill="#1e1e1e" d="M 3.85,3.21 Q 3.85,3.21 2.96,4.41 2.07,5.62 -0.62,7.59 -3.32,9.56 -5.36,11.67 -7.41,13.79 -9.44,14.83 -11.47,15.87 -11.57,13.36 -11.66,10.85 -14.26,10.06 -16.85,9.26 -14.85,7.31 -12.85,5.35 -11.16,3.86 -9.47,2.36 -7.84,0.80 -6.20,-0.76 -5.07,-1.04 -3.93,-1.32 -2.77,-1.22 -1.60,-1.12 -0.53,-0.65 0.53,-0.18 1.40,0.59 2.27,1.38 2.84,2.40 3.41,3.42 3.63,4.57 3.84,5.72 3.68,6.88 3.52,8.04 2.99,9.08 2.47,10.13 1.64,10.95 0.81,11.77 -0.23,12.29 -1.28,12.80 -2.44,12.96 -3.60,13.11 -4.75,12.88 -5.90,12.66 -6.91,12.08 -7.93,11.50 -8.71,10.62 -9.48,9.75 -9.94,8.67 -10.40,7.60 -10.49,6.43 -10.58,5.26 -10.29,4.13 -10.00,3.00 -9.37,2.01 -8.73,1.03 -7.82,0.30 -6.90,-0.42 -5.81,-0.81 -4.71,-1.21 -3.54,-1.24 -2.37,-1.27 -1.25,-0.92 -0.13,-0.57 0.80,0.11 1.75,0.79 2.43,1.75 3.11,2.70 3.44,3.82 3.78,4.94 3.75,6.11 3.71,7.28 3.30,8.37 2.89,9.47 2.15,10.38 1.42,11.29 0.43,11.91 -0.55,12.54 -0.55,12.54 -0.55,12.54 -1.35,13.16 -2.15,13.79 -4.26,15.49 -6.37,17.20 -8.22,19.12 -10.07,21.05 -12.70,21.67 -15.33,22.28 -18.17,21.03 -21.01,19.77 -21.63,17.72 -22.24,15.68 -22.39,13.37 -22.53,11.06 -21.07,9.31 -19.61,7.56 -16.96,6.12 -14.31,4.68 -12.52,3.40 -10.74,2.13 -8.26,0.48 -5.79,-1.15 -4.82,-2.18 -3.85,-3.21 -3.41,-3.62 -2.97,-4.03 -2.44,-4.33 -1.91,-4.63 -1.33,-4.79 -0.75,-4.95 -0.15,-4.97 0.45,-4.99 1.04,-4.86 1.63,-4.74 2.17,-4.47 2.72,-4.21 3.18,-3.82 3.65,-3.43 4.01,-2.95 4.36,-2.46 4.59,-1.90 4.83,-1.34 4.92,-0.74 5.01,-0.15 4.95,0.45 4.90,1.05 4.70,1.62 4.50,2.19 4.18,2.70 3.85,3.21 3.85,3.21 L 3.85,3.21 Z"></path></g><g transform="translate(14.532375253095097 368.2191300512889) rotate(0 10.35969369325312 16.187061532327405)" stroke="none"><path fill="#1e1e1e" d="M 2.66,0 Q 2.66,0 2.69,0.93 2.73,1.86 2.79,3.14 2.86,4.42 2.92,5.90 2.97,7.37 3.02,8.85 3.08,10.32 2.85,11.45 2.62,12.59 2.63,13.69 2.63,14.79 2.39,16.89 2.15,18.99 1.86,20.26 1.56,21.53 1.23,22.63 0.90,23.73 0.63,25.13 0.35,26.53 -0.12,27.89 -0.60,29.25 -0.76,30.77 -0.92,32.28 -0.92,32.69 -0.91,33.09 -0.97,33.52 -1.02,33.95 -1.18,34.36 -1.34,34.77 -1.59,35.12 -1.84,35.48 -2.16,35.77 -2.49,36.05 -2.88,36.25 -3.27,36.45 -3.69,36.56 -4.11,36.66 -4.55,36.65 -4.98,36.65 -5.40,36.55 -5.83,36.44 -6.21,36.23 -6.60,36.03 -6.92,35.74 -7.24,35.45 -7.49,35.09 -7.73,34.73 -7.89,34.32 -8.04,33.91 -8.09,33.48 -8.14,33.05 -7.81,31.69 -7.48,30.34 -6.54,29.14 -5.60,27.95 -4.63,26.78 -3.66,25.61 -2.14,23.66 -0.63,21.71 0.71,20.52 2.05,19.32 3.09,18.38 4.14,17.44 5.05,16.32 5.96,15.20 7.82,13.77 9.68,12.34 10.61,11.34 11.54,10.33 12.35,9.45 13.15,8.56 14.12,7.16 15.09,5.76 16.66,4.54 18.23,3.32 19.05,1.94 19.87,0.56 21.10,-0.83 22.33,-2.22 22.58,-2.65 22.84,-3.07 23.22,-3.39 23.59,-3.71 24.05,-3.89 24.51,-4.07 25.01,-4.10 25.50,-4.13 25.98,-3.99 26.46,-3.86 26.86,-3.58 27.27,-3.30 27.57,-2.91 27.87,-2.51 28.03,-2.04 28.18,-1.57 28.18,-1.08 28.18,-0.58 28.02,-0.12 27.86,0.34 27.56,0.74 27.26,1.13 26.85,1.41 26.44,1.68 25.97,1.82 25.49,1.95 24.99,1.92 24.50,1.89 24.04,1.71 23.58,1.52 23.21,1.20 22.83,0.88 22.57,0.45 22.32,0.03 22.21,-0.44 22.11,-0.93 22.16,-1.42 22.22,-1.91 22.43,-2.36 22.64,-2.81 22.98,-3.17 23.32,-3.53 23.76,-3.76 24.19,-3.99 24.68,-4.07 25.17,-4.14 25.66,-4.06 26.15,-3.98 26.59,-3.75 27.02,-3.52 27.36,-3.16 27.70,-2.80 27.91,-2.35 28.11,-1.90 28.17,-1.40 28.22,-0.91 28.11,-0.43 28.00,0.04 28.00,0.04 28.00,0.04 26.13,2.33 24.26,4.61 23.50,5.37 22.73,6.13 21.22,7.29 19.71,8.45 18.27,10.26 16.82,12.07 16.01,12.88 15.20,13.69 14.08,14.92 12.96,16.16 11.74,17.37 10.52,18.58 9.44,20.17 8.37,21.76 7.37,22.82 6.36,23.87 5.52,24.75 4.68,25.62 3.95,26.74 3.21,27.87 2.60,28.81 1.98,29.76 1.32,30.68 0.66,31.61 -0.12,32.35 -0.91,33.09 -0.97,33.52 -1.02,33.95 -1.18,34.36 -1.34,34.77 -1.59,35.12 -1.84,35.48 -2.16,35.77 -2.49,36.05 -2.88,36.25 -3.26,36.45 -3.69,36.56 -4.11,36.66 -4.55,36.65 -4.98,36.65 -5.40,36.55 -5.83,36.44 -6.21,36.23 -6.60,36.03 -6.92,35.74 -7.24,35.45 -7.49,35.09 -7.73,34.73 -7.89,34.32 -8.04,33.91 -8.09,33.48 -8.14,33.05 -8.13,32.10 -8.12,31.16 -7.97,29.73 -7.82,28.31 -7.22,27.25 -6.62,26.19 -6.29,24.93 -5.95,23.68 -5.68,22.44 -5.42,21.21 -4.96,19.96 -4.50,18.72 -4.22,17.33 -3.94,15.93 -3.87,14.32 -3.80,12.71 -3.44,11.40 -3.08,10.09 -3.02,8.73 -2.97,7.37 -2.92,5.90 -2.86,4.42 -2.79,3.14 -2.73,1.86 -2.69,0.93 -2.66,0 -2.62,-0.31 -2.58,-0.63 -2.47,-0.93 -2.36,-1.23 -2.17,-1.50 -1.99,-1.76 -1.75,-1.98 -1.51,-2.19 -1.23,-2.34 -0.94,-2.49 -0.63,-2.57 -0.32,-2.64 0.00,-2.64 0.32,-2.64 0.63,-2.57 0.94,-2.49 1.23,-2.34 1.51,-2.19 1.75,-1.98 1.99,-1.76 2.17,-1.50 2.36,-1.23 2.47,-0.93 2.58,-0.63 2.62,-0.31 2.66,0.00 2.66,0.00 L 2.66,0 Z"></path></g><g stroke-linecap="round" transform="translate(232.61092073221164 282.85971801624675) rotate(328.0615328225323 40.95260843955839 40.95260843955839)"><path d="M81.91 40.95 C81.91 42.9, 81.76 44.86, 81.49 46.78 C81.21 48.7, 80.79 50.63, 80.25 52.49 C79.7 54.35, 79.01 56.2, 78.2 57.96 C77.4 59.73, 76.45 61.46, 75.4 63.09 C74.35 64.73, 73.17 66.3, 71.9 67.77 C70.63 69.24, 69.24 70.63, 67.77 71.9 C66.3 73.17, 64.73 74.35, 63.09 75.4 C61.46 76.45, 59.73 77.4, 57.96 78.2 C56.2 79.01, 54.35 79.7, 52.49 80.25 C50.63 80.79, 48.7 81.21, 46.78 81.49 C44.86 81.76, 42.9 81.91, 40.95 81.91 C39.01 81.91, 37.05 81.76, 35.12 81.49 C33.2 81.21, 31.28 80.79, 29.41 80.25 C27.55 79.7, 25.71 79.01, 23.94 78.2 C22.17 77.4, 20.45 76.45, 18.81 75.4 C17.18 74.35, 15.6 73.17, 14.13 71.9 C12.67 70.63, 11.27 69.24, 10 67.77 C8.73 66.3, 7.55 64.73, 6.5 63.09 C5.45 61.46, 4.51 59.73, 3.7 57.96 C2.89 56.2, 2.21 54.35, 1.66 52.49 C1.11 50.63, 0.69 48.7, 0.42 46.78 C0.14 44.86, 0 42.9, 0 40.95 C0 39.01, 0.14 37.05, 0.42 35.12 C0.69 33.2, 1.11 31.28, 1.66 29.41 C2.21 27.55, 2.89 25.71, 3.7 23.94 C4.51 22.17, 5.45 20.45, 6.5 18.81 C7.55 17.18, 8.73 15.6, 10 14.13 C11.27 12.67, 12.67 11.27, 14.13 10 C15.6 8.73, 17.18 7.55, 18.81 6.5 C20.45 5.45, 22.17 4.51, 23.94 3.7 C25.71 2.89, 27.55 2.21, 29.41 1.66 C31.28 1.11, 33.2 0.69, 35.12 0.42 C37.05 0.14, 39.01 0, 40.95 0 C42.9 0, 44.86 0.14, 46.78 0.42 C48.7 0.69, 50.63 1.11, 52.49 1.66 C54.35 2.21, 56.2 2.89, 57.96 3.7 C59.73 4.51, 61.46 5.45, 63.09 6.5 C64.73 7.55, 66.3 8.73, 67.77 10 C69.24 11.27, 70.63 12.67, 71.9 14.13 C73.17 15.6, 74.35 17.18, 75.4 18.81 C76.45 20.45, 77.4 22.17, 78.2 23.94 C79.01 25.71, 79.7 27.55, 80.25 29.41 C80.79 31.28, 81.21 33.2, 81.49 35.12 C81.76 37.05, 81.84 39.98, 81.91 40.95 C81.97 41.92, 81.97 39.98, 81.91 40.95" stroke="none" stroke-width="0" fill="#ffffff"></path><path d="M81.91 40.95 C81.91 42.9, 81.76 44.86, 81.49 46.78 C81.21 48.7, 80.79 50.63, 80.25 52.49 C79.7 54.35, 79.01 56.2, 78.2 57.96 C77.4 59.73, 76.45 61.46, 75.4 63.09 C74.35 64.73, 73.17 66.3, 71.9 67.77 C70.63 69.24, 69.24 70.63, 67.77 71.9 C66.3 73.17, 64.73 74.35, 63.09 75.4 C61.46 76.45, 59.73 77.4, 57.96 78.2 C56.2 79.01, 54.35 79.7, 52.49 80.25 C50.63 80.79, 48.7 81.21, 46.78 81.49 C44.86 81.76, 42.9 81.91, 40.95 81.91 C39.01 81.91, 37.05 81.76, 35.12 81.49 C33.2 81.21, 31.28 80.79, 29.41 80.25 C27.55 79.7, 25.71 79.01, 23.94 78.2 C22.17 77.4, 20.45 76.45, 18.81 75.4 C17.18 74.35, 15.6 73.17, 14.13 71.9 C12.67 70.63, 11.27 69.24, 10 67.77 C8.73 66.3, 7.55 64.73, 6.5 63.09 C5.45 61.46, 4.51 59.73, 3.7 57.96 C2.89 56.2, 2.21 54.35, 1.66 52.49 C1.11 50.63, 0.69 48.7, 0.42 46.78 C0.14 44.86, 0 42.9, 0 40.95 C0 39.01, 0.14 37.05, 0.42 35.12 C0.69 33.2, 1.11 31.28, 1.66 29.41 C2.21 27.55, 2.89 25.71, 3.7 23.94 C4.51 22.17, 5.45 20.45, 6.5 18.81 C7.55 17.18, 8.73 15.6, 10 14.13 C11.27 12.67, 12.67 11.27, 14.13 10 C15.6 8.73, 17.18 7.55, 18.81 6.5 C20.45 5.45, 22.17 4.51, 23.94 3.7 C25.71 2.89, 27.55 2.21, 29.41 1.66 C31.28 1.11, 33.2 0.69, 35.12 0.42 C37.05 0.14, 39.01 0, 40.95 0 C42.9 0, 44.86 0.14, 46.78 0.42 C48.7 0.69, 50.63 1.11, 52.49 1.66 C54.35 2.21, 56.2 2.89, 57.96 3.7 C59.73 4.51, 61.46 5.45, 63.09 6.5 C64.73 7.55, 66.3 8.73, 67.77 10 C69.24 11.27, 70.63 12.67, 71.9 14.13 C73.17 15.6, 74.35 17.18, 75.4 18.81 C76.45 20.45, 77.4 22.17, 78.2 23.94 C79.01 25.71, 79.7 27.55, 80.25 29.41 C80.79 31.28, 81.21 33.2, 81.49 35.12 C81.76 37.05, 81.84 39.98, 81.91 40.95 C81.97 41.92, 81.97 39.98, 81.91 40.95" stroke="#1e1e1e" stroke-width="4" fill="none"></path></g><g stroke-linecap="round"><g transform="translate(296.4071917939125 376.4668399759605) rotate(328.0615328225323 31.94303458285549 -0.273017389597058)" fill-rule="evenodd"><path d="M0 0 C0.09 -4.73, 0.46 -20.39, 0.55 -28.39 C0.64 -36.4, 0.64 -40.04, 0.55 -48.05 C0.46 -56.06, -0.55 -70.17, 0 -76.44 C0.55 -82.72, 1.64 -83.73, 3.82 -85.73 C6.01 -87.73, 10.1 -88.18, 13.1 -88.46 C16.11 -88.73, 19.48 -89.19, 21.84 -87.37 C24.21 -85.55, 26.39 -81.18, 27.3 -77.54 C28.21 -73.9, 27.21 -71.89, 27.3 -65.52 C27.39 -59.15, 27.94 -45.96, 27.85 -39.31 C27.76 -32.67, 25.48 -26.39, 26.76 -25.66 C28.03 -24.94, 32.49 -33.22, 35.49 -34.95 C38.5 -36.68, 42.32 -37.04, 44.77 -36.04 C47.23 -35.04, 48.78 -32.13, 50.24 -28.94 C51.69 -25.75, 51.6 -17.02, 53.51 -16.93 C55.42 -16.84, 58.33 -27.03, 61.7 -28.39 C65.07 -29.76, 70.98 -27.03, 73.71 -25.12 C76.44 -23.21, 77.26 -19.48, 78.08 -16.93 C78.9 -14.38, 76.9 -9.56, 78.63 -9.83 C80.36 -10.1, 85.27 -16.93, 88.46 -18.57 C91.64 -20.2, 95.37 -20.93, 97.74 -19.66 C100.11 -18.38, 101.65 -15.11, 102.65 -10.92 C103.66 -6.73, 103.56 0.36, 103.75 5.46 C103.93 10.56, 103.84 14.29, 103.75 19.66 C103.66 25.03, 103.47 32.49, 103.2 37.68 C102.93 42.86, 103.66 46.14, 102.11 50.78 C100.56 55.42, 97.19 61.06, 93.92 65.52 C90.64 69.98, 86.18 74.08, 82.45 77.54 C78.72 81, 78.45 84.54, 71.53 86.27 C64.61 88, 48.23 87.73, 40.95 87.91 C33.67 88.09, 32.49 87.82, 27.85 87.37 C23.21 86.91, 18.02 88, 13.1 85.18 C8.19 82.36, 2.37 75.08, -1.64 70.44 C-5.64 65.8, -7.28 63.98, -10.92 57.33 C-14.56 50.69, -20.2 37.77, -23.48 30.58 C-26.76 23.39, -28.21 19.38, -30.58 14.2 C-32.94 9.01, -36.13 3.19, -37.68 -0.55 C-39.22 -4.28, -40.41 -5.28, -39.86 -8.19 C-39.31 -11.1, -36.58 -16.11, -34.4 -18.02 C-32.22 -19.93, -29.76 -20.39, -26.76 -19.66 C-23.75 -18.93, -19.38 -15.56, -16.38 -13.65 C-13.38 -11.74, -11.47 -10.47, -8.74 -8.19 C-6.01 -5.92, -1.46 -1.37, 0 0" stroke="none" stroke-width="0" fill="#ffffff" fill-rule="evenodd"></path><path d="M0 0 C0.09 -4.73, 0.46 -20.39, 0.55 -28.39 C0.64 -36.4, 0.64 -40.04, 0.55 -48.05 C0.46 -56.06, -0.55 -70.17, 0 -76.44 C0.55 -82.72, 1.64 -83.73, 3.82 -85.73 C6.01 -87.73, 10.1 -88.18, 13.1 -88.46 C16.11 -88.73, 19.48 -89.19, 21.84 -87.37 C24.21 -85.55, 26.39 -81.18, 27.3 -77.54 C28.21 -73.9, 27.21 -71.89, 27.3 -65.52 C27.39 -59.15, 27.94 -45.96, 27.85 -39.31 C27.76 -32.67, 25.48 -26.39, 26.76 -25.66 C28.03 -24.94, 32.49 -33.22, 35.49 -34.95 C38.5 -36.68, 42.32 -37.04, 44.77 -36.04 C47.23 -35.04, 48.78 -32.13, 50.24 -28.94 C51.69 -25.75, 51.6 -17.02, 53.51 -16.93 C55.42 -16.84, 58.33 -27.03, 61.7 -28.39 C65.07 -29.76, 70.98 -27.03, 73.71 -25.12 C76.44 -23.21, 77.26 -19.48, 78.08 -16.93 C78.9 -14.38, 76.9 -9.56, 78.63 -9.83 C80.36 -10.1, 85.27 -16.93, 88.46 -18.57 C91.64 -20.2, 95.37 -20.93, 97.74 -19.66 C100.11 -18.38, 101.65 -15.11, 102.65 -10.92 C103.66 -6.73, 103.56 0.36, 103.75 5.46 C103.93 10.56, 103.84 14.29, 103.75 19.66 C103.66 25.03, 103.47 32.49, 103.2 37.68 C102.93 42.86, 103.66 46.14, 102.11 50.78 C100.56 55.42, 97.19 61.06, 93.92 65.52 C90.64 69.98, 86.18 74.08, 82.45 77.54 C78.72 81, 78.45 84.54, 71.53 86.27 C64.61 88, 48.23 87.73, 40.95 87.91 C33.67 88.09, 32.49 87.82, 27.85 87.37 C23.21 86.91, 18.02 88, 13.1 85.18 C8.19 82.36, 2.37 75.08, -1.64 70.44 C-5.64 65.8, -7.28 63.98, -10.92 57.33 C-14.56 50.69, -20.2 37.77, -23.48 30.58 C-26.76 23.39, -28.21 19.38, -30.58 14.2 C-32.94 9.01, -36.13 3.19, -37.68 -0.55 C-39.22 -4.28, -40.41 -5.28, -39.86 -8.19 C-39.31 -11.1, -36.58 -16.11, -34.4 -18.02 C-32.22 -19.93, -29.76 -20.39, -26.76 -19.66 C-23.75 -18.93, -19.38 -15.56, -16.38 -13.65 C-13.38 -11.74, -11.47 -10.47, -8.74 -8.19 C-6.01 -5.92, -1.46 -1.37, 0 0 M0 0 C0.09 -4.73, 0.46 -20.39, 0.55 -28.39 C0.64 -36.4, 0.64 -40.04, 0.55 -48.05 C0.46 -56.06, -0.55 -70.17, 0 -76.44 C0.55 -82.72, 1.64 -83.73, 3.82 -85.73 C6.01 -87.73, 10.1 -88.18, 13.1 -88.46 C16.11 -88.73, 19.48 -89.19, 21.84 -87.37 C24.21 -85.55, 26.39 -81.18, 27.3 -77.54 C28.21 -73.9, 27.21 -71.89, 27.3 -65.52 C27.39 -59.15, 27.94 -45.96, 27.85 -39.31 C27.76 -32.67, 25.48 -26.39, 26.76 -25.66 C28.03 -24.94, 32.49 -33.22, 35.49 -34.95 C38.5 -36.68, 42.32 -37.04, 44.77 -36.04 C47.23 -35.04, 48.78 -32.13, 50.24 -28.94 C51.69 -25.75, 51.6 -17.02, 53.51 -16.93 C55.42 -16.84, 58.33 -27.03, 61.7 -28.39 C65.07 -29.76, 70.98 -27.03, 73.71 -25.12 C76.44 -23.21, 77.26 -19.48, 78.08 -16.93 C78.9 -14.38, 76.9 -9.56, 78.63 -9.83 C80.36 -10.1, 85.27 -16.93, 88.46 -18.57 C91.64 -20.2, 95.37 -20.93, 97.74 -19.66 C100.11 -18.38, 101.65 -15.11, 102.65 -10.92 C103.66 -6.73, 103.56 0.36, 103.75 5.46 C103.93 10.56, 103.84 14.29, 103.75 19.66 C103.66 25.03, 103.47 32.49, 103.2 37.68 C102.93 42.86, 103.66 46.14, 102.11 50.78 C100.56 55.42, 97.19 61.06, 93.92 65.52 C90.64 69.98, 86.18 74.08, 82.45 77.54 C78.72 81, 78.45 84.54, 71.53 86.27 C64.61 88, 48.23 87.73, 40.95 87.91 C33.67 88.09, 32.49 87.82, 27.85 87.37 C23.21 86.91, 18.02 88, 13.1 85.18 C8.19 82.36, 2.37 75.08, -1.64 70.44 C-5.64 65.8, -7.28 63.98, -10.92 57.33 C-14.56 50.69, -20.2 37.77, -23.48 30.58 C-26.76 23.39, -28.21 19.38, -30.58 14.2 C-32.94 9.01, -36.13 3.19, -37.68 -0.55 C-39.22 -4.28, -40.41 -5.28, -39.86 -8.19 C-39.31 -11.1, -36.58 -16.11, -34.4 -18.02 C-32.22 -19.93, -29.76 -20.39, -26.76 -19.66 C-23.75 -18.93, -19.38 -15.56, -16.38 -13.65 C-13.38 -11.74, -11.47 -10.47, -8.74 -8.19 C-6.01 -5.92, -1.46 -1.37, 0 0" stroke="#1e1e1e" stroke-width="4" fill="none"></path></g></g><mask></mask></svg>