<svg version="1.1" xmlns="http://www.w3.org/2000/svg" viewBox="0 0 57.65239922139881 45.7435456671639" width="172.95719766419643" height="137.2306370014917" filter="invert(93%) hue-rotate(180deg)">
  <!-- svg-source:excalidraw -->
  
  <defs>
    <style class="style-fonts">
      @font-face {
        font-family: "Virgil";
        src: url("https://excalidraw.com/Virgil.woff2");
      }
      @font-face {
        font-family: "Cascadia";
        src: url("https://excalidraw.com/Cascadia.woff2");
      }
      @font-face {
        font-family: "Assistant";
        src: url("https://excalidraw.com/Assistant-Regular.woff2");
      }
    </style>
    
  </defs>
  <g stroke-linecap="round" transform="translate(10.16957988280052 10) rotate(0 2.10931939771973 1.9120222205758424)"><path d="M4.22 1.91 C4.22 2.02, 4.21 2.14, 4.19 2.24 C4.17 2.35, 4.13 2.46, 4.09 2.57 C4.05 2.67, 4 2.77, 3.94 2.87 C3.87 2.96, 3.8 3.06, 3.73 3.14 C3.65 3.23, 3.56 3.31, 3.47 3.38 C3.37 3.45, 3.27 3.51, 3.16 3.57 C3.06 3.62, 2.95 3.67, 2.83 3.71 C2.72 3.75, 2.6 3.78, 2.48 3.79 C2.36 3.81, 2.23 3.82, 2.11 3.82 C1.99 3.82, 1.86 3.81, 1.74 3.79 C1.62 3.78, 1.5 3.75, 1.39 3.71 C1.27 3.67, 1.16 3.62, 1.05 3.57 C0.95 3.51, 0.85 3.45, 0.75 3.38 C0.66 3.31, 0.57 3.23, 0.49 3.14 C0.42 3.06, 0.34 2.96, 0.28 2.87 C0.22 2.77, 0.17 2.67, 0.13 2.57 C0.09 2.46, 0.05 2.35, 0.03 2.24 C0.01 2.14, 0 2.02, 0 1.91 C0 1.8, 0.01 1.69, 0.03 1.58 C0.05 1.47, 0.09 1.36, 0.13 1.26 C0.17 1.15, 0.22 1.05, 0.28 0.96 C0.34 0.86, 0.42 0.77, 0.49 0.68 C0.57 0.6, 0.66 0.52, 0.75 0.45 C0.85 0.38, 0.95 0.31, 1.05 0.26 C1.16 0.2, 1.27 0.15, 1.39 0.12 C1.5 0.08, 1.62 0.05, 1.74 0.03 C1.86 0.01, 1.99 0, 2.11 0 C2.23 0, 2.36 0.01, 2.48 0.03 C2.6 0.05, 2.72 0.08, 2.83 0.12 C2.95 0.15, 3.06 0.2, 3.16 0.26 C3.27 0.31, 3.37 0.38, 3.47 0.45 C3.56 0.52, 3.65 0.6, 3.73 0.68 C3.8 0.77, 3.87 0.86, 3.94 0.96 C4 1.05, 4.05 1.15, 4.09 1.26 C4.13 1.36, 4.17 1.47, 4.19 1.58 C4.21 1.69, 4.21 1.86, 4.22 1.91 C4.22 1.97, 4.22 1.86, 4.22 1.91" stroke="none" stroke-width="0" fill="#1e1e1e"></path><path d="M4.22 1.91 C4.22 2.02, 4.21 2.14, 4.19 2.24 C4.17 2.35, 4.13 2.46, 4.09 2.57 C4.05 2.67, 4 2.77, 3.94 2.87 C3.87 2.96, 3.8 3.06, 3.73 3.14 C3.65 3.23, 3.56 3.31, 3.47 3.38 C3.37 3.45, 3.27 3.51, 3.16 3.57 C3.06 3.62, 2.95 3.67, 2.83 3.71 C2.72 3.75, 2.6 3.78, 2.48 3.79 C2.36 3.81, 2.23 3.82, 2.11 3.82 C1.99 3.82, 1.86 3.81, 1.74 3.79 C1.62 3.78, 1.5 3.75, 1.39 3.71 C1.27 3.67, 1.16 3.62, 1.05 3.57 C0.95 3.51, 0.85 3.45, 0.75 3.38 C0.66 3.31, 0.57 3.23, 0.49 3.14 C0.42 3.06, 0.34 2.96, 0.28 2.87 C0.22 2.77, 0.17 2.67, 0.13 2.57 C0.09 2.46, 0.05 2.35, 0.03 2.24 C0.01 2.14, 0 2.02, 0 1.91 C0 1.8, 0.01 1.69, 0.03 1.58 C0.05 1.47, 0.09 1.36, 0.13 1.26 C0.17 1.15, 0.22 1.05, 0.28 0.96 C0.34 0.86, 0.42 0.77, 0.49 0.68 C0.57 0.6, 0.66 0.52, 0.75 0.45 C0.85 0.38, 0.95 0.31, 1.05 0.26 C1.16 0.2, 1.27 0.15, 1.39 0.12 C1.5 0.08, 1.62 0.05, 1.74 0.03 C1.86 0.01, 1.99 0, 2.11 0 C2.23 0, 2.36 0.01, 2.48 0.03 C2.6 0.05, 2.72 0.08, 2.83 0.12 C2.95 0.15, 3.06 0.2, 3.16 0.26 C3.27 0.31, 3.37 0.38, 3.47 0.45 C3.56 0.52, 3.65 0.6, 3.73 0.68 C3.8 0.77, 3.87 0.86, 3.94 0.96 C4 1.05, 4.05 1.15, 4.09 1.26 C4.13 1.36, 4.17 1.47, 4.19 1.58 C4.21 1.69, 4.21 1.86, 4.22 1.91 C4.22 1.97, 4.22 1.86, 4.22 1.91" stroke="#1e1e1e" stroke-width="4" fill="none"></path></g><g stroke-linecap="round"><g transform="translate(21.234760410701995 12.01122616903477) rotate(0 13.044017753478244 0)"><path d="M0 0 C4.35 0, 21.74 0, 26.09 0 M0 0 C4.35 0, 21.74 0, 26.09 0" stroke="#1e1e1e" stroke-width="4" fill="none"></path></g></g><mask></mask><g stroke-linecap="round" transform="translate(10 20.548187246971906) rotate(0 2.10931939771973 1.9120222205758424)"><path d="M4.22 1.91 C4.22 2.02, 4.21 2.14, 4.19 2.24 C4.17 2.35, 4.13 2.46, 4.09 2.57 C4.05 2.67, 4 2.77, 3.94 2.87 C3.87 2.96, 3.8 3.06, 3.73 3.14 C3.65 3.23, 3.56 3.31, 3.47 3.38 C3.37 3.45, 3.27 3.51, 3.16 3.57 C3.06 3.62, 2.95 3.67, 2.83 3.71 C2.72 3.75, 2.6 3.78, 2.48 3.79 C2.36 3.81, 2.23 3.82, 2.11 3.82 C1.99 3.82, 1.86 3.81, 1.74 3.79 C1.62 3.78, 1.5 3.75, 1.39 3.71 C1.27 3.67, 1.16 3.62, 1.05 3.57 C0.95 3.51, 0.85 3.45, 0.75 3.38 C0.66 3.31, 0.57 3.23, 0.49 3.14 C0.42 3.06, 0.34 2.96, 0.28 2.87 C0.22 2.77, 0.17 2.67, 0.13 2.57 C0.09 2.46, 0.05 2.35, 0.03 2.24 C0.01 2.14, 0 2.02, 0 1.91 C0 1.8, 0.01 1.69, 0.03 1.58 C0.05 1.47, 0.09 1.36, 0.13 1.26 C0.17 1.15, 0.22 1.05, 0.28 0.96 C0.34 0.86, 0.42 0.77, 0.49 0.68 C0.57 0.6, 0.66 0.52, 0.75 0.45 C0.85 0.38, 0.95 0.31, 1.05 0.26 C1.16 0.2, 1.27 0.15, 1.39 0.12 C1.5 0.08, 1.62 0.05, 1.74 0.03 C1.86 0.01, 1.99 0, 2.11 0 C2.23 0, 2.36 0.01, 2.48 0.03 C2.6 0.05, 2.72 0.08, 2.83 0.12 C2.95 0.15, 3.06 0.2, 3.16 0.26 C3.27 0.31, 3.37 0.38, 3.47 0.45 C3.56 0.52, 3.65 0.6, 3.73 0.68 C3.8 0.77, 3.87 0.86, 3.94 0.96 C4 1.05, 4.05 1.15, 4.09 1.26 C4.13 1.36, 4.17 1.47, 4.19 1.58 C4.21 1.69, 4.21 1.86, 4.22 1.91 C4.22 1.97, 4.22 1.86, 4.22 1.91" stroke="none" stroke-width="0" fill="#1e1e1e"></path><path d="M4.22 1.91 C4.22 2.02, 4.21 2.14, 4.19 2.24 C4.17 2.35, 4.13 2.46, 4.09 2.57 C4.05 2.67, 4 2.77, 3.94 2.87 C3.87 2.96, 3.8 3.06, 3.73 3.14 C3.65 3.23, 3.56 3.31, 3.47 3.38 C3.37 3.45, 3.27 3.51, 3.16 3.57 C3.06 3.62, 2.95 3.67, 2.83 3.71 C2.72 3.75, 2.6 3.78, 2.48 3.79 C2.36 3.81, 2.23 3.82, 2.11 3.82 C1.99 3.82, 1.86 3.81, 1.74 3.79 C1.62 3.78, 1.5 3.75, 1.39 3.71 C1.27 3.67, 1.16 3.62, 1.05 3.57 C0.95 3.51, 0.85 3.45, 0.75 3.38 C0.66 3.31, 0.57 3.23, 0.49 3.14 C0.42 3.06, 0.34 2.96, 0.28 2.87 C0.22 2.77, 0.17 2.67, 0.13 2.57 C0.09 2.46, 0.05 2.35, 0.03 2.24 C0.01 2.14, 0 2.02, 0 1.91 C0 1.8, 0.01 1.69, 0.03 1.58 C0.05 1.47, 0.09 1.36, 0.13 1.26 C0.17 1.15, 0.22 1.05, 0.28 0.96 C0.34 0.86, 0.42 0.77, 0.49 0.68 C0.57 0.6, 0.66 0.52, 0.75 0.45 C0.85 0.38, 0.95 0.31, 1.05 0.26 C1.16 0.2, 1.27 0.15, 1.39 0.12 C1.5 0.08, 1.62 0.05, 1.74 0.03 C1.86 0.01, 1.99 0, 2.11 0 C2.23 0, 2.36 0.01, 2.48 0.03 C2.6 0.05, 2.72 0.08, 2.83 0.12 C2.95 0.15, 3.06 0.2, 3.16 0.26 C3.27 0.31, 3.37 0.38, 3.47 0.45 C3.56 0.52, 3.65 0.6, 3.73 0.68 C3.8 0.77, 3.87 0.86, 3.94 0.96 C4 1.05, 4.05 1.15, 4.09 1.26 C4.13 1.36, 4.17 1.47, 4.19 1.58 C4.21 1.69, 4.21 1.86, 4.22 1.91 C4.22 1.97, 4.22 1.86, 4.22 1.91" stroke="#1e1e1e" stroke-width="4" fill="none"></path></g><g stroke-linecap="round"><g transform="translate(21.065180527901475 22.55941341600669) rotate(0 13.293609346748667 0)"><path d="M0 0 C4.43 0, 22.16 0, 26.59 0 M0 0 C4.43 0, 22.16 0, 26.59 0" stroke="#1e1e1e" stroke-width="4" fill="none"></path></g></g><mask></mask><g stroke-linecap="round" transform="translate(10.3296033037403 31.919501226012216) rotate(0 2.10931939771973 1.9120222205758424)"><path d="M4.22 1.91 C4.22 2.02, 4.21 2.14, 4.19 2.24 C4.17 2.35, 4.13 2.46, 4.09 2.57 C4.05 2.67, 4 2.77, 3.94 2.87 C3.87 2.96, 3.8 3.06, 3.73 3.14 C3.65 3.23, 3.56 3.31, 3.47 3.38 C3.37 3.45, 3.27 3.51, 3.16 3.57 C3.06 3.62, 2.95 3.67, 2.83 3.71 C2.72 3.75, 2.6 3.78, 2.48 3.79 C2.36 3.81, 2.23 3.82, 2.11 3.82 C1.99 3.82, 1.86 3.81, 1.74 3.79 C1.62 3.78, 1.5 3.75, 1.39 3.71 C1.27 3.67, 1.16 3.62, 1.05 3.57 C0.95 3.51, 0.85 3.45, 0.75 3.38 C0.66 3.31, 0.57 3.23, 0.49 3.14 C0.42 3.06, 0.34 2.96, 0.28 2.87 C0.22 2.77, 0.17 2.67, 0.13 2.57 C0.09 2.46, 0.05 2.35, 0.03 2.24 C0.01 2.14, 0 2.02, 0 1.91 C0 1.8, 0.01 1.69, 0.03 1.58 C0.05 1.47, 0.09 1.36, 0.13 1.26 C0.17 1.15, 0.22 1.05, 0.28 0.96 C0.34 0.86, 0.42 0.77, 0.49 0.68 C0.57 0.6, 0.66 0.52, 0.75 0.45 C0.85 0.38, 0.95 0.31, 1.05 0.26 C1.16 0.2, 1.27 0.15, 1.39 0.12 C1.5 0.08, 1.62 0.05, 1.74 0.03 C1.86 0.01, 1.99 0, 2.11 0 C2.23 0, 2.36 0.01, 2.48 0.03 C2.6 0.05, 2.72 0.08, 2.83 0.12 C2.95 0.15, 3.06 0.2, 3.16 0.26 C3.27 0.31, 3.37 0.38, 3.47 0.45 C3.56 0.52, 3.65 0.6, 3.73 0.68 C3.8 0.77, 3.87 0.86, 3.94 0.96 C4 1.05, 4.05 1.15, 4.09 1.26 C4.13 1.36, 4.17 1.47, 4.19 1.58 C4.21 1.69, 4.21 1.86, 4.22 1.91 C4.22 1.97, 4.22 1.86, 4.22 1.91" stroke="none" stroke-width="0" fill="#1e1e1e"></path><path d="M4.22 1.91 C4.22 2.02, 4.21 2.14, 4.19 2.24 C4.17 2.35, 4.13 2.46, 4.09 2.57 C4.05 2.67, 4 2.77, 3.94 2.87 C3.87 2.96, 3.8 3.06, 3.73 3.14 C3.65 3.23, 3.56 3.31, 3.47 3.38 C3.37 3.45, 3.27 3.51, 3.16 3.57 C3.06 3.62, 2.95 3.67, 2.83 3.71 C2.72 3.75, 2.6 3.78, 2.48 3.79 C2.36 3.81, 2.23 3.82, 2.11 3.82 C1.99 3.82, 1.86 3.81, 1.74 3.79 C1.62 3.78, 1.5 3.75, 1.39 3.71 C1.27 3.67, 1.16 3.62, 1.05 3.57 C0.95 3.51, 0.85 3.45, 0.75 3.38 C0.66 3.31, 0.57 3.23, 0.49 3.14 C0.42 3.06, 0.34 2.96, 0.28 2.87 C0.22 2.77, 0.17 2.67, 0.13 2.57 C0.09 2.46, 0.05 2.35, 0.03 2.24 C0.01 2.14, 0 2.02, 0 1.91 C0 1.8, 0.01 1.69, 0.03 1.58 C0.05 1.47, 0.09 1.36, 0.13 1.26 C0.17 1.15, 0.22 1.05, 0.28 0.96 C0.34 0.86, 0.42 0.77, 0.49 0.68 C0.57 0.6, 0.66 0.52, 0.75 0.45 C0.85 0.38, 0.95 0.31, 1.05 0.26 C1.16 0.2, 1.27 0.15, 1.39 0.12 C1.5 0.08, 1.62 0.05, 1.74 0.03 C1.86 0.01, 1.99 0, 2.11 0 C2.23 0, 2.36 0.01, 2.48 0.03 C2.6 0.05, 2.72 0.08, 2.83 0.12 C2.95 0.15, 3.06 0.2, 3.16 0.26 C3.27 0.31, 3.37 0.38, 3.47 0.45 C3.56 0.52, 3.65 0.6, 3.73 0.68 C3.8 0.77, 3.87 0.86, 3.94 0.96 C4 1.05, 4.05 1.15, 4.09 1.26 C4.13 1.36, 4.17 1.47, 4.19 1.58 C4.21 1.69, 4.21 1.86, 4.22 1.91 C4.22 1.97, 4.22 1.86, 4.22 1.91" stroke="#1e1e1e" stroke-width="4" fill="none"></path></g><g stroke-linecap="round"><g transform="translate(20.982779701966393 34.013128220982075) rotate(0 13.252408933781126 0)"><path d="M0 0 C4.42 0, 22.09 0, 26.5 0 M0 0 C4.42 0, 22.09 0, 26.5 0" stroke="#1e1e1e" stroke-width="4" fill="none"></path></g></g><mask></mask></svg>